<svg id="visual" viewBox="0 0 900 450" width="900" height="450" xmlns="http://www.w3.org/2000/svg" xmlns:xlink="http://www.w3.org/1999/xlink" version="1.1"><rect width="900" height="450" fill="#001829"></rect><g><g transform="translate(160 376)"><path d="M0 -114.7L67.4 -92.8L109.1 -35.4L109.1 35.4L67.4 92.8L0 114.7L-67.4 92.8L-109.1 35.4L-109.1 -35.4L-67.4 -92.8Z" fill="none" stroke="#297EA6" stroke-width="2"></path></g><g transform="translate(592 307)"><path d="M0 -82L48.2 -66.3L78 -25.3L78 25.3L48.2 66.3L0 82L-48.2 66.3L-78 25.3L-78 -25.3L-48.2 -66.3Z" fill="none" stroke="#297EA6" stroke-width="2"></path></g><g transform="translate(310 7)"><path d="M0 -89L52.3 -72L84.6 -27.5L84.6 27.5L52.3 72L0 89L-52.3 72L-84.6 27.5L-84.6 -27.5L-52.3 -72Z" stroke="#297EA6" fill="none" stroke-width="2"></path></g><g transform="translate(731 89)"><path d="M0 -58L34.1 -46.9L55.2 -17.9L55.2 17.9L34.1 46.9L0 58L-34.1 46.9L-55.2 17.9L-55.2 -17.9L-34.1 -46.9Z" stroke="#297EA6" fill="none" stroke-width="2"></path></g><g transform="translate(883 403)"><path d="M0 -107L62.9 -86.6L101.8 -33.1L101.8 33.1L62.9 86.6L0 107L-62.9 86.6L-101.8 33.1L-101.8 -33.1L-62.9 -86.6Z" stroke="#297EA6" fill="none" stroke-width="2"></path></g><g transform="translate(50 147)"><path d="M0 -106L62.3 -85.8L100.8 -32.8L100.8 32.8L62.3 85.8L0 106L-62.3 85.8L-100.8 32.8L-100.8 -32.8L-62.3 -85.8Z" stroke="#297EA6" fill="none" stroke-width="2"></path></g></g></svg>